<?xml version="1.0" encoding="UTF-8" standalone="no"?>
<!-- Created with Inkscape (http://www.inkscape.org/) -->

<svg
   width="62.86179mm"
   height="92.234711mm"
   viewBox="0 0 62.86179 92.234711"
   version="1.1"
   id="svg1"
   xml:space="preserve"
   xmlns="http://www.w3.org/2000/svg"
   xmlns:svg="http://www.w3.org/2000/svg"><defs
     id="defs1" /><g
     id="g1384"
     style="display:inline"
     transform="translate(-40.036972,-34.798492)"><g
       id="g1369"
       transform="matrix(0.96919426,-0.06269256,0.14009037,0.72718364,-7.149148,24.104161)"
       style="display:inline"><path
         style="display:inline;fill:#fde3d4;fill-opacity:1;stroke-width:0.264583"
         d="m 59.76505,57.014515 c 1.554427,-0.0026 3.569583,0.56041 5.008255,0.49146 0.844392,2.326128 1.398163,4.801085 1.934766,7.127213 l -3.389974,7.143749 C 62.093643,68.968659 60.000046,67.243734 59.76505,57.014515 Z"
         id="path1367" /><path
         style="display:inline;fill:#fb9861;fill-opacity:1;stroke-width:0.264583"
         d="m 59.99427,57.431119 c 1.504818,-0.134878 3.009635,-0.112953 4.514453,0.01654 0.844392,2.326128 1.546991,5.148351 2.083594,7.474479 l -3.175,6.664192 C 62.192863,68.778048 60.229266,67.660338 59.99427,57.431119 Z"
         id="path1368" /><path
         style="display:inline;fill:#fba270;fill-opacity:1;stroke-width:0.264583"
         d="m 60.159635,57.695703 c 1.43316,-0.09056 2.86632,-0.09658 4.299479,0.03308 0.844392,2.326128 1.464308,4.933376 2.000911,7.259504 l -2.910416,6.283854 c -1.224454,-2.808286 -3.154978,-3.34722 -3.389974,-13.576438 z"
         id="path1369" /></g><g
       id="g1372"
       style="display:inline"
       transform="matrix(-0.98090781,-0.10048094,-0.20841792,0.74230002,155.13686,25.487835)"><path
         style="display:inline;fill:#fde3d4;fill-opacity:1;stroke-width:0.264583"
         d="m 59.877737,57.248398 c 1.554427,-0.0026 3.473679,0.520167 4.912351,0.451217 0.844392,2.326128 1.38138,4.607445 1.917983,6.933573 l -3.218408,7.003189 c -1.224454,-2.808278 -3.37693,-4.15876 -3.611926,-14.387979 z"
         id="path1370" /><path
         style="display:inline;fill:#fb9861;fill-opacity:1;stroke-width:0.264583"
         d="m 60.055847,57.413939 c 1.504818,-0.134878 2.969281,0.213314 4.474099,0.342782 0.844392,2.326128 1.525768,4.839289 2.062371,7.165417 -0.495278,3.244471 -1.829412,4.737212 -3.042708,6.482291 -1.224454,-2.808282 -3.258766,-3.761271 -3.493762,-13.99049 z"
         id="path1371" /><path
         style="display:inline;fill:#fba270;fill-opacity:1;stroke-width:0.264583"
         d="m 60.159635,57.695703 c 1.43316,-0.09056 2.789907,0.263055 4.223066,0.392715 0.844392,2.326128 1.540721,4.573741 2.077324,6.899869 -0.578041,2.378551 -1.701025,4.362488 -2.910416,6.283854 -1.224454,-2.808286 -3.154978,-3.34722 -3.389974,-13.576438 z"
         id="path1372" /></g><g
       id="g1383"
       style="display:inline"
       transform="translate(-1.0407202e-6)"><g
         id="g1377"><path
           style="fill:#1c62b3;fill-opacity:1;stroke-width:0.264583"
           d="m 63.352899,71.467871 c 1.087453,-2.178803 2.174907,-4.357607 3.26236,-6.53641 0.397642,-9.94e-4 0.321611,-0.146148 1.356392,0.04677 1.257762,2.474962 2.708214,2.873852 3.262359,2.864795 0.730762,-0.03206 2.242679,0.109972 2.981724,-2.853102 0.666332,-0.112006 1.305451,-0.06073 1.941045,0.01169 0.826551,4.102743 1.997765,4.67269 3.051884,6.442866 -0.757718,4.138233 -1.147354,10.323102 -1.216075,15.247726 -4.796567,2.043751 -9.102986,1.17929 -13.446998,0.537882 0.472658,-4.806351 -1.137601,-9.043752 -1.192691,-15.762219 z"
           id="path1373" /><path
           style="fill:#fba270;fill-opacity:1;stroke-width:0.264583"
           d="m 68.15874,65.235481 c 0.480438,-0.06826 0.820112,-0.397937 0.865286,-1.274543 2.273678,0.962369 3.356167,0.367028 4.443354,-0.222168 0.07219,0.882374 0.334886,1.264652 0.654812,1.496711 -0.436323,4.617666 -4.961645,3.035913 -5.963452,0 z"
           id="path1374" /><path
           style="fill:#fa955d;fill-opacity:1;stroke-width:0.264583"
           d="m 69.035717,63.434751 c 0.01546,0.417295 -0.06984,0.426583 0.04677,0.57296 0.23755,0.18992 1.38812,0.593584 2.147307,0.611324 0.942516,0.02202 1.739654,-0.339438 1.980337,-0.57625 0.238431,-0.340114 0.369544,-0.341966 0.23386,-0.643117 -0.533642,0.710099 -1.380363,0.897204 -2.151426,0.948072 -0.871339,0.05748 -1.54011,-0.252071 -2.256848,-0.912989 z"
           id="path1375" /><path
           style="fill:#fba270;fill-opacity:1;stroke-width:0.264583"
           d="m 68.907096,63.399672 c 0.791121,1.398227 4.346741,1.303736 4.548592,-0.140317 0.520121,-0.560764 0.780607,-1.765404 1.473324,-2.65432 0.606387,-2.020517 0.2901,-3.369014 0.292333,-4.875999 -0.562106,-2.972606 -7.648343,-3.529177 -8.255289,0.01169 -0.210683,1.680203 -0.09236,4.238241 0.315713,5.039699 0.734539,0.852795 0.725424,1.472736 1.625327,2.619242 z"
           id="path1376" /><path
           style="fill:#1a1a1a;fill-opacity:1;stroke-width:0.264583"
           d="m 68.006729,60.464718 -0.280633,0.01169 c -0.253044,-0.625392 -0.182745,-0.788112 -0.783432,-1.449936 l -0.08185,-0.8419 c -0.0543,-0.970388 0.0078,-1.882584 0.140317,-2.759559 0.256525,-3.008033 7.628536,-2.794121 8.208515,0.08185 0.07742,0.773819 0.21699,1.135859 0.05846,3.472833 -0.513453,0.108748 -0.503843,0.873469 -0.795128,1.251157 h -0.245555 c 0.230506,-1.113286 0.07358,-2.149086 0.01169,-3.203893 -0.04996,-0.122207 -0.173684,-0.236217 -0.502801,-0.327406 -0.493315,0.138952 -1.103302,0.102896 -1.718876,0.05846 -1.21274,-0.0935 -2.595214,-0.567256 -3.753467,0.245555 l -0.292327,0.596344 z"
           id="path1377" /></g><g
         id="g1382"><path
           style="fill:#fb9861;fill-opacity:1;stroke-width:0.264583"
           d="m 63.433853,101.71575 5.83737,0.0331 c 0.0391,5.47772 -0.57663,10.77684 -1.504818,15.99075 l -3.737239,-0.23151 c -0.546698,-5.11486 -0.663685,-10.41388 -0.595313,-15.79234 z"
           id="path1378" /><path
           style="display:inline;fill:#1a1a1a;fill-opacity:1;stroke-width:0.264583"
           d="m 64.558333,86.915624 c 4.376078,0.486594 8.750409,0.982673 13.427603,-0.165364 1.560397,5.185383 1.943927,10.279144 2.248959,15.03164 l -8.003646,-0.0496 c -0.205564,-1.909336 -0.28684,-3.836429 -0.777214,-5.705078 -0.757982,2.258334 -0.684201,3.87685 -0.926042,5.738148 l -7.987108,-0.0165 c 0.464927,-4.807726 0.402549,-9.820128 2.017448,-14.833206 z"
           id="path1379" /><path
           style="display:inline;fill:#fb9861;fill-opacity:1;stroke-width:0.264583"
           d="m 79.266728,101.70341 -5.83737,0.0331 c -0.0391,5.47772 1.11451,10.56637 2.042698,15.78028 l 3.585229,-0.0327 c 0.546698,-5.11486 0.277815,-10.40219 0.209443,-15.78065 z"
           id="path1380" /><path
           style="fill:#1f241c;fill-opacity:1;stroke-width:0.264583"
           d="m 63.914165,117.37475 4.022407,0.37418 c 0.233861,3.83723 0.467722,4.07488 0.701583,5.51912 l -9.073801,-0.0234 0.163703,-0.8419 c 2.747083,-1.49739 4.1688,-2.86225 4.186108,-5.028 z"
           id="path1381" /><path
           style="display:inline;fill:#1f241c;fill-opacity:1;stroke-width:0.264583"
           d="m 79.157662,117.39611 -3.788546,-0.0468 c -0.233861,3.83723 -0.350792,4.47244 -0.584653,5.91668 l 9.073801,-0.0234 -0.163703,-0.8419 c -2.747083,-1.49739 -4.402661,-2.09051 -4.419969,-4.25626 z"
           id="path1382" /></g></g><g
       id="g1356"
       style="display:inline"
       transform="matrix(-0.99869704,0.0510314,0.12939992,0.99469257,136.72683,1.8142495)"><path
         style="display:inline;fill:#fde3d4;fill-opacity:1;stroke-width:0.264583"
         d="m 59.977734,45.715038 3.795117,0.04134 0.885115,11.267593 c -1.683963,0.356593 -3.23206,0.734681 -4.916023,0.374614 z"
         id="path1354" /><path
         style="display:inline;fill:#fb9861;fill-opacity:1;stroke-width:0.264583"
         d="m 60.25,45.749998 h 3.250002 c 0.188795,3.988935 0.71165,7.810841 0.999998,11.75 -1.476419,0.306555 -2.961956,0.494566 -4.499999,0 -0.05058,-4.420129 0.08481,-7.739789 0.249999,-11.75 z"
         id="path1355" /><path
         style="display:inline;opacity:1;fill:#fba270;fill-opacity:1;stroke-width:0.264583"
         d="m 60.5,45.999997 c -0.33185,3.773388 -0.249999,6.000002 -0.25,11.250002 1.352489,0.517205 2.678291,0.31385 4,0 -0.320157,-3.750001 -0.506515,-5.989053 -1,-11.250002 z"
         id="path1356" /></g><g
       id="g1353"
       transform="matrix(0.99937282,0.0101698,-0.08066065,0.99980676,3.7242922,4.0162845)"
       style="display:inline"><path
         style="display:inline;fill:#fde3d4;fill-opacity:1;stroke-width:0.264583"
         d="m 59.977734,45.715038 3.795117,0.04134 0.897183,11.474956 c -1.683963,0.356593 -3.28271,0.417081 -4.966673,0.05701 z"
         id="path1351" /><path
         style="display:inline;fill:#fb9861;fill-opacity:1;stroke-width:0.264583"
         d="m 60.25,45.749998 h 3.250002 c 0.188795,3.988935 0.71165,7.810841 0.999998,11.75 -1.476419,0.306555 -2.961956,0.494566 -4.499999,0 -0.05058,-4.420129 0.08481,-7.739789 0.249999,-11.75 z"
         id="path1352" /><path
         style="display:inline;opacity:1;fill:#fba270;fill-opacity:1;stroke-width:0.264583"
         d="m 60.5,45.999997 c -0.33185,3.773388 -0.249999,6.000002 -0.25,11.250002 1.352489,0.517205 2.678291,0.31385 4,0 -0.320157,-3.750001 -0.506515,-5.989053 -1,-11.250002 z"
         id="path1353" /></g><g
       id="g1367"
       style="display:inline"
       transform="translate(0,4.7625002)"><path
         style="opacity:1;fill:#cccccc;fill-opacity:1;stroke-width:0.264583"
         d="m 51.25,37.749998 h 4 v 4.750001 h 32.250001 v -4.750001 h 4 v 4.750001 h 3.500001 v 0.25 h 0.249999 v 1.499999 h -0.249999 v 0.25 h -3.500001 l 0.0041,4.50218 -0.257166,9.33e-4 0.0052,0.246888 h -3.502182 v -0.25 h -0.25 V 44.499998 H 55.25 v 4.500001 H 55 v 0.25 h -3.5 v -0.25 h -0.25 v -4.500001 h -3.499998 v -0.25 H 47.5 v -1.499999 h 0.250002 v -0.25 H 51.25 Z"
         id="path1357" /><path
         style="fill:#000000;fill-opacity:1;stroke-width:0.264583"
         d="M 51.5,37.999998 H 55 v 4.750001 h 32.750001 v -4.750001 h 3.500001 v 4.750001 h 3.75 v 1.499999 h -3.75 v 4.499999 l 0.0063,0.245868 -3.506316,0.0041 V 44.249998 H 55 v 4.750001 H 51.5 V 44.249998 H 47.750002 V 42.749999 H 51.5 Z"
         id="path1358" /><path
         style="display:inline;fill:#1a1a1a;fill-opacity:1;stroke-width:0.264583"
         d="m 51.750002,38.25 h 2.999999 v 4.749998 H 88 V 38.25 h 3.000002 v 4.749998 H 94.75 v 1.000001 h -3.749998 v 4.499999 L 90.75,48.749997 h -2.5 L 88,48.499998 V 43.999999 H 54.750001 v 4.749998 h -2.999999 v -4.749998 h -3.500001 l -0.25,-0.0074 0.0058,-0.991109 0.244153,-0.0015 h 3.500001 z"
         id="path1359" /><g
         id="g1366"
         style="display:inline"><path
           style="display:inline;fill:#fde3d4;fill-opacity:1;stroke-width:0.264583"
           d="m 60.000001,44.749997 v 1.000001 h 3.493685 c 0,-2.361397 0.0063,0.677274 0.0063,-3.750001 v -0.249999 h -2.5 v 0.249999 h -1.000001 v 0.25 c 0,2.5 0,2.5 0,2.5 z"
           id="path1360" /><path
           style="display:inline;fill:#fde3d4;fill-opacity:1;stroke-width:0.264583"
           d="M 79.250002,41.749998 H 81.5 v 0.249999 h 1.000001 v 0.25 H 82.75 v 3.250001 h -0.249999 v 0.25 H 79 v -3.750001 h 0.250002 z"
           id="path1361" /><path
           style="display:inline;fill:#fb9861;fill-opacity:1;stroke-width:0.264583"
           d="m 60.5,41.999997 h 3.000002 v 3.500001 H 63.25 v 0.25 h -3 V 45.249999 44.499998 H 60.000001 V 42.499999 42.249997 H 60.25 60.5 Z"
           id="path1362" /><path
           style="display:inline;fill:#fb9861;fill-opacity:1;stroke-width:0.264583"
           d="m 79.250002,41.999997 h 2.5 v 0.25 h 0.749999 v 0.250002 H 82.75 v 1.999999 h -0.249999 v 1 h -0.25 v 0.499999 h -2.75 -0.249999 V 45.249999 H 79 v -3.000002 h 0.250002 z"
           id="path1363" /><path
           style="fill:#fba270;fill-opacity:1;stroke-width:0.264583"
           d="M 60.749999,42.249997 H 63.25 v 3.000002 H 63 v 0.249999 h -2.5 v -1.25 h -0.25 v -1.749999 h 0.499999 z"
           id="path1364" /><path
           style="fill:#fba270;fill-opacity:1;stroke-width:0.264583"
           d="m 79.500001,42.249997 v 0.250002 h -0.249999 v 2.5 h 0.249999 v 0.749999 h 2.500001 v -0.499999 h 0.249999 v -1.000001 h 0.25 v -1.499999 h -0.25 v -0.25 H 81.5 v -0.250002 z"
           id="path1365" /><rect
           style="fill:#000000;fill-opacity:1;stroke-width:0.264583"
           id="rect1365"
           width="3.5"
           height="0.24999999"
           x="60"
           y="44" /><rect
           style="fill:#000000;fill-opacity:1;stroke-width:0.264583"
           id="rect1366"
           width="3.75"
           height="0.24999999"
           x="79"
           y="44" /></g></g><rect
       style="fill:none;stroke:none;stroke-width:0.250781"
       id="rect5"
       width="62.86179"
       height="92.234711"
       x="40.036972"
       y="34.798492" /></g></svg>
