<?xml version="1.0" encoding="UTF-8" standalone="no"?>
<!-- Created with Inkscape (http://www.inkscape.org/) -->

<svg
   width="95.707985mm"
   height="90.492683mm"
   viewBox="0 0 95.707985 90.492683"
   version="1.1"
   id="svg1"
   xml:space="preserve"
   xmlns="http://www.w3.org/2000/svg"
   xmlns:svg="http://www.w3.org/2000/svg"><defs
     id="defs1" /><g
     id="layer2"
     transform="translate(-61.311454,-91.095484)"><path
       style="fill:#facc15;fill-opacity:1;stroke-width:0.264583"
       d="m 105.73422,174.45668 -4.2e-4,-65.35887 1.9149,-4.01957 1.74239,3.95057 0.0172,68.21201 9.31575,4.34735 -0.009,-68.35864 19.31295,0.0604 c 5.99119,0.0236 12.31687,-4.969 13.53371,-9.35889 l -33.92486,0.069 c -1.24846,-2.04178 -0.64885,-1.14573 -2.08743,-3.33815 l 37.41206,0.006 4.05797,-9.572406 -77.29468,0.158582 c -5.917842,0.04197 -11.058532,5.00197 -12.442589,9.301014 l 32.292543,0.10898 c -0.931573,1.08109 -1.461722,1.82471 -2.376047,3.33133 l -31.586265,4.9e-4 -4.300948,9.25056 35.244598,0.009 -0.131282,47.33696 c -0.196087,7.40775 9.04335,14.85669 9.30945,13.86395 z"
       id="Outer" /><path
       style="fill:#0b1016;fill-opacity:1;stroke-width:0.264583"
       d="m 104.31918,171.85838 0.10351,-62.31203 3.13975,-7.15933 3.19151,7.09033 -0.0518,66.91815 6.53828,3.088 v -67.62546 h 20.70168 c 4.88214,-0.29327 8.6602,-2.4267 11.33416,-6.40027 h -32.58788 c -1.13284,-2.09317 -2.63372,-4.14033 -4.50262,-6.141496 l 39.67821,0.0345 2.98449,-6.693542 H 80.32249 c -5.008655,0.345028 -8.591194,2.530205 -10.747618,6.555531 h 33.122678 c -1.8804,1.943657 -3.484782,3.979327 -4.81314,6.106997 H 66.624884 l -3.20876,6.59003 34.330274,0.069 0.06901,48.52817 c 0.664745,4.19618 2.187662,8.15694 6.503772,11.35142 z"
       id="Inner" /></g></svg>
